<?xml version="1.0" standalone="no"?>
<!DOCTYPE svg PUBLIC "-//W3C//DTD SVG 20010904//EN"
 "http://www.w3.org/TR/2001/REC-SVG-20010904/DTD/svg10.dtd">
<svg version="1.0" xmlns="http://www.w3.org/2000/svg"
 width="299.000000pt" height="299.000000pt" viewBox="0 0 299.000000 299.000000"
 preserveAspectRatio="xMidYMid meet">
<metadata>
Created by potrace 1.11, written by Peter Selinger 2001-2013
</metadata>
<g transform="translate(0.000000,299.000000) scale(0.100000,-0.100000)"
fill="#000000" stroke="none">
<path d="M1241 2783 c-19 -17 -141 -219 -141 -235 0 -4 53 -5 118 -2 64 3 143
2 175 -4 32 -5 59 -6 62 -2 7 11 -113 214 -140 238 -31 27 -46 28 -74 5z"/>
<path d="M515 2515 c-14 -13 -25 -30 -25 -38 0 -24 41 -250 47 -259 3 -5 39
24 82 65 42 41 102 91 134 111 32 21 57 42 55 48 -4 11 -229 96 -256 97 -7 1
-24 -10 -37 -24z"/>
<path d="M1860 2486 c-63 -24 -115 -47 -117 -52 -2 -5 18 -22 45 -39 26 -16
86 -67 134 -113 47 -46 89 -79 92 -74 7 12 46 229 46 259 0 30 -34 63 -62 62
-13 0 -75 -20 -138 -43z"/>
<path d="M1105 2455 c-274 -49 -530 -264 -638 -535 -91 -230 -71 -516 52 -735
101 -178 257 -315 442 -385 l55 -21 75 74 c56 56 88 79 129 94 51 19 58 25 90
84 71 130 199 234 350 285 86 29 234 25 330 -8 41 -15 78 -23 83 -19 4 4 19
52 33 107 23 89 25 113 21 239 -3 125 -7 150 -36 235 -44 132 -102 229 -195
327 -171 182 -384 273 -631 272 -49 -1 -121 -7 -160 -14z"/>
<path d="M246 1907 c-117 -45 -151 -73 -140 -115 6 -21 196 -192 213 -192 5 0
11 35 15 78 6 69 34 209 51 255 11 26 -17 21 -139 -26z"/>
<path d="M2160 1932 c0 -5 9 -44 20 -88 11 -43 23 -118 27 -166 4 -54 10 -88
17 -88 12 0 183 143 203 169 16 21 16 53 0 74 -6 10 -66 38 -132 62 -127 48
-135 50 -135 37z"/>
<path d="M300 1188 c-103 -180 -93 -200 101 -206 145 -5 167 2 132 40 -35 38
-95 139 -124 208 -15 35 -31 66 -36 67 -5 2 -37 -47 -73 -109z"/>
<path d="M2149 1267 c-12 -26 -10 -30 22 -57 49 -42 64 -39 40 8 -11 20 -26
46 -34 57 -15 19 -16 19 -28 -8z"/>
<path d="M1692 1264 c-92 -24 -164 -66 -233 -134 -36 -36 -75 -84 -87 -106
l-21 -41 59 -6 c93 -10 200 -60 200 -93 0 -27 -29 -26 -87 3 -51 24 -69 28
-148 28 -71 0 -100 -5 -137 -22 -66 -30 -143 -105 -175 -172 -24 -48 -28 -68
-28 -146 0 -78 4 -98 28 -151 36 -77 113 -154 192 -191 l60 -28 695 -3 c466
-2 707 0 731 7 81 24 135 100 127 181 -6 62 -37 104 -93 125 -62 24 -106 14
-162 -38 -43 -39 -46 -40 -59 -23 -16 23 -7 42 41 85 21 18 52 33 75 37 21 4
41 12 44 20 6 17 -19 115 -40 156 -47 90 -169 179 -268 193 l-49 8 8 -49 c13
-83 12 -89 -14 -89 -21 0 -25 8 -42 73 -25 98 -62 164 -134 238 -125 128 -317
183 -483 138z"/>
<path d="M775 768 c3 -13 14 -72 25 -132 12 -63 27 -117 37 -128 23 -25 66
-23 101 7 25 21 30 34 35 87 3 35 9 73 12 84 5 17 1 23 -22 29 -15 3 -59 22
-97 41 -83 40 -98 42 -91 12z"/>
</g>
</svg>
